<svg width="25" height="24" viewBox="0 0 25 24" fill="none" xmlns="http://www.w3.org/2000/svg">
<g id="share">
<path id="Vector (Stroke)" fill-rule="evenodd" clip-rule="evenodd" d="M18.5 2.75C17.2574 2.75 16.25 3.75736 16.25 5C16.25 6.24264 17.2574 7.25 18.5 7.25C19.7426 7.25 20.75 6.24264 20.75 5C20.75 3.75736 19.7426 2.75 18.5 2.75ZM14.75 5C14.75 2.92893 16.4289 1.25 18.5 1.25C20.5711 1.25 22.25 2.92893 22.25 5C22.25 7.07107 20.5711 8.75 18.5 8.75C16.4289 8.75 14.75 7.07107 14.75 5Z" fill="#151514"/>
<path id="Vector (Stroke)_2" fill-rule="evenodd" clip-rule="evenodd" d="M6.5 9.75C5.25736 9.75 4.25 10.7574 4.25 12C4.25 13.2426 5.25736 14.25 6.5 14.25C7.74264 14.25 8.75 13.2426 8.75 12C8.75 10.7574 7.74264 9.75 6.5 9.75ZM2.75 12C2.75 9.92893 4.42893 8.25 6.5 8.25C8.57107 8.25 10.25 9.92893 10.25 12C10.25 14.0711 8.57107 15.75 6.5 15.75C4.42893 15.75 2.75 14.0711 2.75 12Z" fill="#151514"/>
<path id="Vector (Stroke)_3" fill-rule="evenodd" clip-rule="evenodd" d="M18.5 16.75C17.2574 16.75 16.25 17.7574 16.25 19C16.25 20.2426 17.2574 21.25 18.5 21.25C19.7426 21.25 20.75 20.2426 20.75 19C20.75 17.7574 19.7426 16.75 18.5 16.75ZM14.75 19C14.75 16.9289 16.4289 15.25 18.5 15.25C20.5711 15.25 22.25 16.9289 22.25 19C22.25 21.0711 20.5711 22.75 18.5 22.75C16.4289 22.75 14.75 21.0711 14.75 19Z" fill="#151514"/>
<path id="Vector (Stroke)_4" fill-rule="evenodd" clip-rule="evenodd" d="M8.44196 13.1323C8.65051 12.7744 9.10969 12.6533 9.46757 12.8619L16.2976 16.8419C16.6555 17.0504 16.7765 17.5096 16.568 17.8675C16.3594 18.2254 15.9002 18.3464 15.5424 18.1379L8.71236 14.1579C8.35447 13.9493 8.23341 13.4902 8.44196 13.1323Z" fill="#151514"/>
<path id="Vector (Stroke)_5" fill-rule="evenodd" clip-rule="evenodd" d="M16.5577 6.13187C16.7665 6.48962 16.6457 6.94888 16.288 7.15765L9.46799 11.1377C9.11024 11.3464 8.65098 11.2257 8.4422 10.8679C8.23343 10.5102 8.35419 10.0509 8.71194 9.84212L15.5319 5.86212C15.8897 5.65335 16.349 5.77412 16.5577 6.13187Z" fill="#151514"/>
</g>
</svg>
