<svg width="16" height="16" viewBox="0 0 16 16" fill="none" xmlns="http://www.w3.org/2000/svg">
<path d="M5.50828 9.86469C5.50828 9.86469 8.29192 4.88305 4.64955 3.00782C1.00769 1.1333 2.85741 2.44881 0.0906218 0.355804C0.0906218 0.355804 -0.393435 1.50051 0.875925 3.81342L0.129095 3.68105C0.129095 3.68105 -0.0743348 5.40434 1.87069 5.85767L1.04566 6.32773C1.04566 6.32773 1.71931 7.39166 2.87778 7.09134L2.42038 7.82435C2.42038 7.82435 2.94417 8.53352 3.98696 7.77169L3.63316 8.32394C3.63316 8.32394 4.33096 9.21672 5.09464 8.67016C5.09464 8.67016 5.72957 8.47517 5.50828 9.86469Z" fill="url(#paint0_linear_348_666)"/>
<path d="M5.51833 8.98804C5.51833 8.98804 7.74449 5.00486 4.8321 3.50538C1.92047 2.00733 3.3993 3.05882 1.18697 1.3857C1.18697 1.3857 0.800227 2.3009 1.81511 4.15086L1.2179 4.04518C1.2179 4.04518 1.05521 5.42225 2.61022 5.7852L1.95065 6.1606C1.95065 6.1606 2.48927 7.01175 3.41564 6.77121L3.04952 7.35691C3.04952 7.35691 3.4687 7.92446 4.30228 7.31527L4.01964 7.75757C4.01964 7.75757 4.57738 8.46923 5.18817 8.03299C5.18817 8.03299 5.69611 7.87677 5.51833 8.98804Z" fill="#131313"/>
<path d="M9.25232 11.9317C9.25232 11.9317 6.71763 5.62281 10.8058 4.23756C14.8933 2.85231 12.7838 3.9746 15.9507 2.15132C15.9507 2.15132 16.3658 3.57002 14.7889 5.95801L15.6039 5.9637C15.6039 5.9637 15.6637 7.98589 13.5309 8.09727L14.3745 8.80893C14.3745 8.80893 13.5523 9.88959 12.3352 9.29998L12.7594 10.239C12.7594 10.239 12.1315 10.9429 11.0807 9.84796L11.4101 10.5575C11.4101 10.5575 10.5775 11.435 9.80704 10.6464C9.80704 10.6464 9.14244 10.2906 9.25232 11.9314" fill="url(#paint1_linear_348_666)"/>
<path d="M9.32043 10.9232C9.32043 10.9232 7.29368 5.87999 10.5619 4.77157C13.8298 3.66316 12.1443 4.56021 14.6755 3.10379C14.6755 3.10379 15.0071 4.23747 13.7468 6.14686L14.3979 6.15113C14.3979 6.15113 14.4461 7.76732 12.7413 7.85628L13.4162 8.42667C13.4162 8.42667 12.7586 9.29028 11.7847 8.82022L12.1249 9.56996C12.1249 9.56996 11.6225 10.1332 10.7822 9.25861L11.0452 9.82474C11.0452 9.82474 10.3798 10.5271 9.764 9.89697C9.764 9.89697 9.23191 9.61017 9.32043 10.9232Z" fill="#131313"/>
<g clip-path="url(#clip0_348_666)">
<path d="M11.5915 8.84971C11.5981 8.78088 11.6061 8.71228 11.6117 8.64456C11.6172 8.57549 11.6212 8.50622 11.6238 8.43682C11.7055 7.00254 11.3972 5.57821 10.7617 4.45481C10.4336 3.86846 10.0266 3.37998 9.5642 3.01761C9.10182 2.65525 8.59326 2.4262 8.06794 2.34372C5.91214 1.99558 3.95589 4.13945 3.63654 7.15167C3.62817 7.22021 3.62098 7.28743 3.61453 7.35654L3.60171 7.56288C3.52154 8.99741 3.83039 10.4213 4.4655 11.5452C5.13504 12.7357 6.09068 13.4859 7.1589 13.659C9.31489 14.0046 11.2713 11.8605 11.5915 8.84971ZM8.03507 2.75499C8.52215 2.83145 8.99368 3.0439 9.42234 3.38003C9.851 3.71615 10.2283 4.16928 10.5323 4.71317C11.122 5.76172 11.4035 7.06001 11.333 8.39003L10.8608 8.31558C10.9185 7.16766 10.6684 6.03112 10.1604 5.13244C9.89523 4.65777 9.56606 4.26237 9.192 3.96922C8.81794 3.67607 8.40645 3.491 7.98143 3.42477C7.55675 3.35448 7.12643 3.40419 6.71543 3.57101C6.30443 3.73784 5.92093 4.01846 5.58714 4.3966C4.94453 5.12026 4.52748 6.13471 4.39963 7.27597L3.92769 7.19851C4.22982 4.41396 6.04012 2.434 8.03507 2.75499ZM10.57 8.26601L10.569 8.26711L10.0906 8.19014C10.1275 7.33095 9.93757 6.483 9.55758 5.81085C9.3551 5.44863 9.1038 5.14694 8.81826 4.92329C8.53271 4.69964 8.21862 4.55847 7.89421 4.50799C7.57008 4.45446 7.24166 4.49239 6.92796 4.61961C6.61425 4.74683 6.32149 4.96079 6.0666 5.24914C5.59011 5.78354 5.27032 6.54866 5.16889 7.39696L4.69126 7.32137C4.80818 6.29425 5.19299 5.36648 5.76972 4.72125C6.07344 4.37719 6.42236 4.1218 6.7963 3.96984C7.17024 3.81789 7.56176 3.7724 7.94821 3.83599C8.33488 3.89679 8.70919 4.06551 9.04947 4.33238C9.38975 4.59925 9.68925 4.95898 9.93063 5.39074C10.393 6.21293 10.6164 7.22609 10.57 8.26601ZM8.97806 10.4262C8.52001 10.942 7.94764 11.1746 7.36625 11.0808C6.78485 10.987 6.26296 10.5801 5.89844 9.93195C5.56849 9.34459 5.40078 8.60746 5.42658 7.85803L5.42757 7.85692C5.4293 7.78857 5.43103 7.72022 5.43685 7.65C5.44344 7.58151 5.45137 7.51329 5.46063 7.44542C5.55306 6.70622 5.8337 6.04057 6.24948 5.57434C6.70753 5.05852 7.2799 4.82597 7.8613 4.91977C8.14739 4.96464 8.42434 5.08939 8.67613 5.28677C8.92791 5.48416 9.14952 5.75027 9.32812 6.0697C9.66164 6.66275 9.82581 7.39239 9.79998 8.14363C9.79825 8.21197 9.79729 8.28171 9.79069 8.35054C9.78503 8.42104 9.77607 8.48797 9.76691 8.55513C9.67448 9.29433 9.39384 9.95998 8.97806 10.4262ZM5.13563 7.81096C5.09989 8.66993 5.28973 9.5173 5.66867 10.1902C5.87118 10.5526 6.12264 10.8544 6.40838 11.0778C6.69413 11.3013 7.00845 11.4421 7.33302 11.492C7.65716 11.5458 7.98562 11.5079 8.29934 11.3807C8.61307 11.2535 8.90583 11.0394 9.16064 10.7508C9.63712 10.2164 9.95691 9.45133 10.0583 8.60303L10.5368 8.68001C10.4187 9.70656 10.0341 10.6338 9.4583 11.2801C9.15437 11.624 8.80528 11.8792 8.43121 12.0309C8.05714 12.1826 7.66553 12.2278 7.27903 12.164C6.89226 12.1034 6.51782 11.9349 6.17738 11.6682C5.83693 11.4016 5.53723 11.042 5.29562 10.6104C4.83704 9.79757 4.60937 8.77183 4.65721 7.73398L5.13563 7.81096ZM7.19216 13.245C6.70508 13.1685 6.23355 12.9561 5.80489 12.62C5.37624 12.2838 4.99896 11.8307 4.69492 11.2868C4.10839 10.2491 3.82223 8.93487 3.89427 7.60996L4.36621 7.68741C4.30886 8.83527 4.55889 9.97164 5.06659 10.8705C5.33228 11.3447 5.66173 11.7396 6.0359 12.0325C6.41007 12.3254 6.82154 12.5105 7.24655 12.5771C7.67121 12.6469 8.10145 12.597 8.5124 12.4302C8.92335 12.2633 9.30687 11.983 9.64083 11.6053C10.2779 10.8909 10.7015 9.86333 10.8274 8.72702L11.2995 8.80147C10.9974 11.586 9.18711 13.566 7.19216 13.245Z" fill="#F8F7F7"/>
</g>
<defs>
<linearGradient id="paint0_linear_348_666" x1="3.26275" y1="0.355804" x2="3.26275" y2="9.86469" gradientUnits="userSpaceOnUse">
<stop stop-color="#074D2A"/>
<stop offset="1" stop-color="#F29544"/>
</linearGradient>
<linearGradient id="paint1_linear_348_666" x1="12.2378" y1="2.15132" x2="12.2378" y2="11.9317" gradientUnits="userSpaceOnUse">
<stop stop-color="#074D2A"/>
<stop offset="1" stop-color="#F29544"/>
</linearGradient>
<clipPath id="clip0_348_666">
<rect width="10.2219" height="9.48239" fill="white" transform="matrix(0.490181 0.871621 -0.663992 0.747739 8.25647 0)"/>
</clipPath>
</defs>
</svg>
